<?xml version="1.0"?>
<svg version="1.1" id="topsvg"
xmlns="http://www.w3.org/2000/svg" xmlns:xlink="http://www.w3.org/1999/xlink"
xmlns:cml="http://www.xml-cml.org/schema" x="0" y="0" width="200px" height="200px" viewBox="0 0 100 100">
<title> - Open Babel Depiction</title>
<rect x="0" y="0" width="100" height="100" fill="white"/>
<g transform="translate(0,0)">
<svg width="100" height="100" x="0" y="0" viewBox="0 0 379.987 295.168"
font-family="sans-serif" stroke="rgb(0,0,0)" stroke-width="2"  stroke-linecap="round">
<line x1="303.8" y1="64.6" x2="303.4" y2="91.6" opacity="1.0" stroke="rgb(0,0,0)"  stroke-width="2.0"/>
<line x1="264.7" y1="192.4" x2="263.3" y2="193.2" opacity="1.0" stroke="rgb(0,0,0)"  stroke-width="1.0"/>
<line x1="268.4" y1="197.6" x2="265.9" y2="199.1" opacity="1.0" stroke="rgb(0,0,0)"  stroke-width="1.0"/>
<line x1="272.2" y1="202.9" x2="268.6" y2="204.9" opacity="1.0" stroke="rgb(0,0,0)"  stroke-width="1.0"/>
<line x1="275.9" y1="208.1" x2="271.2" y2="210.8" opacity="1.0" stroke="rgb(0,0,0)"  stroke-width="1.0"/>
<line x1="279.7" y1="213.3" x2="273.9" y2="216.7" opacity="1.0" stroke="rgb(0,0,0)"  stroke-width="1.0"/>
<line x1="283.5" y1="218.5" x2="276.5" y2="222.5" opacity="1.0" stroke="rgb(0,0,0)"  stroke-width="1.0"/>
<line x1="280.0" y1="220.5" x2="320.0" y2="220.5" opacity="1.0" stroke="rgb(0,0,0)"  stroke-width="2.0"/>
<line x1="322.6" y1="219.0" x2="336.1" y2="242.4" opacity="1.0" stroke="rgb(0,0,0)"  stroke-width="2.0"/>
<line x1="317.4" y1="222.0" x2="330.9" y2="245.4" opacity="1.0" stroke="rgb(0,0,0)"  stroke-width="2.0"/>
<line x1="320.0" y1="220.5" x2="333.5" y2="197.1" opacity="1.0" stroke="rgb(0,0,0)"  stroke-width="2.0"/>
<line x1="192.9" y1="159.6" x2="154.7" y2="171.3" opacity="1.0" stroke="rgb(0,0,0)"  stroke-width="2.0"/>
<line x1="78.2" y1="194.9" x2="52.4" y2="202.9" opacity="1.0" stroke="rgb(0,0,0)"  stroke-width="2.0"/>
<line x1="309.5" y1="153.2" x2="282.5" y2="152.8" opacity="1.0" stroke="rgb(0,0,0)"  stroke-width="2.0"/>
<line x1="282.5" y1="152.8" x2="270.7" y2="114.6" opacity="1.0" stroke="rgb(0,0,0)"  stroke-width="2.0"/>
<line x1="287.6" y1="145.0" x2="279.4" y2="118.2" opacity="1.0" stroke="rgb(0,0,0)"  stroke-width="2.0"/>
<line x1="270.7" y1="114.6" x2="303.4" y2="91.6" opacity="1.0" stroke="rgb(0,0,0)"  stroke-width="2.0"/>
<line x1="303.4" y1="91.6" x2="324.9" y2="107.7" opacity="1.0" stroke="rgb(0,0,0)"  stroke-width="2.0"/>
<line x1="303.9" y1="100.9" x2="319.0" y2="112.2" opacity="1.0" stroke="rgb(0,0,0)"  stroke-width="2.0"/>
<line x1="331.2" y1="127.9" x2="326.7" y2="141.1" opacity="1.0" stroke="rgb(0,0,0)"  stroke-width="2.0"/>
<line x1="164.2" y1="60.0" x2="164.2" y2="100.0" opacity="1.0" stroke="rgb(0,0,0)"  stroke-width="2.0"/>
<line x1="164.2" y1="100.0" x2="198.9" y2="120.0" opacity="1.0" stroke="rgb(0,0,0)"  stroke-width="2.0"/>
<line x1="173.0" y1="96.8" x2="197.3" y2="110.8" opacity="1.0" stroke="rgb(0,0,0)"  stroke-width="2.0"/>
<line x1="198.9" y1="120.0" x2="233.5" y2="100.0" opacity="1.0" stroke="rgb(0,0,0)"  stroke-width="2.0"/>
<line x1="233.5" y1="100.0" x2="233.5" y2="60.0" opacity="1.0" stroke="rgb(0,0,0)"  stroke-width="2.0"/>
<line x1="226.3" y1="94.0" x2="226.3" y2="66.0" opacity="1.0" stroke="rgb(0,0,0)"  stroke-width="2.0"/>
<line x1="233.5" y1="60.0" x2="198.9" y2="40.0" opacity="1.0" stroke="rgb(0,0,0)"  stroke-width="2.0"/>
<line x1="198.9" y1="40.0" x2="164.2" y2="60.0" opacity="1.0" stroke="rgb(0,0,0)"  stroke-width="2.0"/>
<line x1="197.3" y1="49.2" x2="173.0" y2="63.2" opacity="1.0" stroke="rgb(0,0,0)"  stroke-width="2.0"/>
<line x1="107.5" y1="222.1" x2="78.2" y2="194.9" opacity="1.0" stroke="rgb(0,0,0)"  stroke-width="2.0"/>
<line x1="108.0" y1="212.8" x2="87.5" y2="193.7" opacity="1.0" stroke="rgb(0,0,0)"  stroke-width="2.0"/>
<line x1="78.2" y1="194.9" x2="87.1" y2="155.9" opacity="1.0" stroke="rgb(0,0,0)"  stroke-width="2.0"/>
<line x1="87.1" y1="155.9" x2="125.3" y2="144.1" opacity="1.0" stroke="rgb(0,0,0)"  stroke-width="2.0"/>
<line x1="95.0" y1="161.0" x2="121.7" y2="152.8" opacity="1.0" stroke="rgb(0,0,0)"  stroke-width="2.0"/>
<line x1="125.3" y1="144.1" x2="154.7" y2="171.3" opacity="1.0" stroke="rgb(0,0,0)"  stroke-width="2.0"/>
<line x1="154.7" y1="171.3" x2="145.8" y2="210.3" opacity="1.0" stroke="rgb(0,0,0)"  stroke-width="2.0"/>
<line x1="146.3" y1="175.6" x2="140.1" y2="202.9" opacity="1.0" stroke="rgb(0,0,0)"  stroke-width="2.0"/>
<line x1="145.8" y1="210.3" x2="107.5" y2="222.1" opacity="1.0" stroke="rgb(0,0,0)"  stroke-width="2.0"/>
<line x1="192.9" y1="159.6" x2="198.9" y2="120.0" opacity="1.0" stroke="rgb(0,0,0)"  stroke-width="2.0"/>
<line x1="233.5" y1="100.0" x2="270.7" y2="114.6" opacity="1.0" stroke="rgb(0,0,0)"  stroke-width="2.0"/>
<line x1="282.5" y1="152.8" x2="260.0" y2="185.9" opacity="1.0" stroke="rgb(0,0,0)"  stroke-width="2.0"/>
<line x1="260.0" y1="185.9" x2="233.1" y2="187.9" opacity="1.0" stroke="rgb(0,0,0)"  stroke-width="2.0"/>
<line x1="211.1" y1="179.2" x2="192.9" y2="159.6" opacity="1.0" stroke="rgb(0,0,0)"  stroke-width="2.0"/>
<line x1="215.0" y1="172.8" x2="202.3" y2="159.1" opacity="1.0" stroke="rgb(0,0,0)"  stroke-width="2.0"/>
<text x="214.098558" y="196.875308" fill="rgb(12,12,255)"  stroke="rgb(12,12,255)" stroke-width="1" font-size="16" >N</text>
<text x="22.000000" y="214.714061" fill="rgb(30,239,30)"  stroke="rgb(30,239,30)" stroke-width="1" font-size="16" >Cl</text>
<text x="335.986710" y="193.886104" fill="rgb(12,12,255)"  stroke="rgb(12,12,255)" stroke-width="1" font-size="16" >NH</text>
<text x="359.986710" y="197.566104" fill="rgb(12,12,255)"  stroke="rgb(12,12,255)" stroke-width="1" font-size="13" >2</text>
<text x="333.986710" y="263.168136" fill="rgb(255,12,12)"  stroke="rgb(255,12,12)" stroke-width="1" font-size="16" >O</text>
<text x="300.036457" y="59.593434" fill="rgb(102,102,102)"  stroke="rgb(102,102,102)" stroke-width="1" font-size="16" >CH</text>
<text x="324.036457" y="63.273434" fill="rgb(102,102,102)"  stroke="rgb(102,102,102)" stroke-width="1" font-size="13" >3</text>
<text x="316.515037" y="161.434929" fill="rgb(255,12,12)"  stroke="rgb(255,12,12)" stroke-width="1" font-size="16" >O</text>
<text x="329.443423" y="123.581834" fill="rgb(12,12,255)"  stroke="rgb(12,12,255)" stroke-width="1" font-size="16" >N</text>
</svg>
</g>
<text font-size="18.000000" fill ="black" font-family="sans-serif"
x="10.000000" y="20.000000" ></text>
</svg>
